solid OpenSCAD_Model
  facet normal -1 0 0
    outer loop
      vertex -16 -8 -9
      vertex -16 -8 9
      vertex -16 0 -9
    endloop
  endfacet
  facet normal -1 0 0
    outer loop
      vertex -16 0 -9
      vertex -16 -8 9
      vertex -16 0 9
    endloop
  endfacet
  facet normal 0 -1 0
    outer loop
      vertex -16 -8 9
      vertex -16 -8 -9
      vertex 16 -8 -9
    endloop
  endfacet
  facet normal 0 -1 0
    outer loop
      vertex 16 -8 9
      vertex -16 -8 9
      vertex 16 -8 -9
    endloop
  endfacet
  facet normal 0 0 -1
    outer loop
      vertex -16 -8 -9
      vertex -16 0 -9
      vertex 16 -8 -9
    endloop
  endfacet
  facet normal 0 0 -1
    outer loop
      vertex 16 -8 -9
      vertex -16 0 -9
      vertex -12 0 -9
    endloop
  endfacet
  facet normal 0 0 -1
    outer loop
      vertex -6 0 -9
      vertex -12 0 -9
      vertex -12 23 -9
    endloop
  endfacet
  facet normal 0 0 -1
    outer loop
      vertex 16 -8 -9
      vertex -12 0 -9
      vertex -6 0 -9
    endloop
  endfacet
  facet normal 0 0 -1
    outer loop
      vertex 12 0 -9
      vertex 16 -8 -9
      vertex 6 0 -9
    endloop
  endfacet
  facet normal 0 0 -1
    outer loop
      vertex 16 -8 -9
      vertex -6 0 -9
      vertex 6 0 -9
    endloop
  endfacet
  facet normal 0 0 -1
    outer loop
      vertex 6 23 -9
      vertex 12 0 -9
      vertex 6 0 -9
    endloop
  endfacet
  facet normal 0 0 -1
    outer loop
      vertex 12 0 -9
      vertex 6 23 -9
      vertex 12 23 -9
    endloop
  endfacet
  facet normal 0 0 -1
    outer loop
      vertex 16 0 -9
      vertex 16 -8 -9
      vertex 12 0 -9
    endloop
  endfacet
  facet normal 0 0 -1
    outer loop
      vertex -6 0 -9
      vertex -12 23 -9
      vertex -6 23 -9
    endloop
  endfacet
  facet normal 0 1 0
    outer loop
      vertex -12 0 9
      vertex -12 0 -9
      vertex -16 0 9
    endloop
  endfacet
  facet normal 0 1 0
    outer loop
      vertex -16 0 9
      vertex -12 0 -9
      vertex -16 0 -9
    endloop
  endfacet
  facet normal 0 0 1
    outer loop
      vertex -16 0 9
      vertex -16 -8 9
      vertex 16 -8 9
    endloop
  endfacet
  facet normal 0 0 1
    outer loop
      vertex 6 0 9
      vertex -6 0 9
      vertex 16 -8 9
    endloop
  endfacet
  facet normal 0 0 1
    outer loop
      vertex 12 0 9
      vertex 6 0 9
      vertex 16 -8 9
    endloop
  endfacet
  facet normal 0 0 1
    outer loop
      vertex 16 0 9
      vertex 12 0 9
      vertex 16 -8 9
    endloop
  endfacet
  facet normal 0 0 1
    outer loop
      vertex 12 7.18487 9
      vertex 6 0 9
      vertex 12 0 9
    endloop
  endfacet
  facet normal 0 0 1
    outer loop
      vertex -6 0 9
      vertex -12 0 9
      vertex 16 -8 9
    endloop
  endfacet
  facet normal 0 0 1
    outer loop
      vertex -12 0 9
      vertex -16 0 9
      vertex 16 -8 9
    endloop
  endfacet
  facet normal 0 0 1
    outer loop
      vertex -6 0 9
      vertex -6 7.18487 9
      vertex -12 0 9
    endloop
  endfacet
  facet normal 0 0 1
    outer loop
      vertex -12 7.18487 9
      vertex -12 0 9
      vertex -6 7.18487 9
    endloop
  endfacet
  facet normal 0 0 1
    outer loop
      vertex 6 7.18487 9
      vertex 6 0 9
      vertex 12 7.18487 9
    endloop
  endfacet
  facet normal 1 0 0
    outer loop
      vertex 16 -8 9
      vertex 16 -8 -9
      vertex 16 0 -9
    endloop
  endfacet
  facet normal 1 0 0
    outer loop
      vertex 16 0 9
      vertex 16 -8 9
      vertex 16 0 -9
    endloop
  endfacet
  facet normal 0 1 0
    outer loop
      vertex 16 0 9
      vertex 16 0 -9
      vertex 12 0 9
    endloop
  endfacet
  facet normal 0 1 0
    outer loop
      vertex 12 0 9
      vertex 16 0 -9
      vertex 12 0 -9
    endloop
  endfacet
  facet normal 1 0 0
    outer loop
      vertex 12 14.369 -2.825
      vertex 12 0 -9
      vertex 12 23 -9
    endloop
  endfacet
  facet normal 1 0 0
    outer loop
      vertex 12 7.18487 9
      vertex 12 0 9
      vertex 12 23 4.76235
    endloop
  endfacet
  facet normal 1 0 0
    outer loop
      vertex 12 17.631 2.825
      vertex 12 19.262 -7.24316e-16
      vertex 12 23 4.76235
    endloop
  endfacet
  facet normal 1 0 0
    outer loop
      vertex 12 0 9
      vertex 12 0 -9
      vertex 12 14.369 -2.825
    endloop
  endfacet
  facet normal 1 0 0
    outer loop
      vertex 12 14.369 2.825
      vertex 12 0 9
      vertex 12 12.738 7.24316e-16
    endloop
  endfacet
  facet normal 1 0 0
    outer loop
      vertex 12 23 4.76235
      vertex 12 0 9
      vertex 12 14.369 2.825
    endloop
  endfacet
  facet normal 1 0 0
    outer loop
      vertex 12 23 4.76235
      vertex 12 14.369 2.825
      vertex 12 17.631 2.825
    endloop
  endfacet
  facet normal 1 0 0
    outer loop
      vertex 12 23 4.76235
      vertex 12 19.262 -7.24316e-16
      vertex 12 23 -9
    endloop
  endfacet
  facet normal 1 0 0
    outer loop
      vertex 12 19.262 -7.24316e-16
      vertex 12 17.631 -2.825
      vertex 12 23 -9
    endloop
  endfacet
  facet normal 1 0 0
    outer loop
      vertex 12 14.369 -2.825
      vertex 12 12.738 7.24316e-16
      vertex 12 0 9
    endloop
  endfacet
  facet normal 1 0 0
    outer loop
      vertex 12 17.631 -2.825
      vertex 12 14.369 -2.825
      vertex 12 23 -9
    endloop
  endfacet
  facet normal 0 1 0
    outer loop
      vertex 6 23 -9
      vertex 6 23 4.76235
      vertex 12 23 -9
    endloop
  endfacet
  facet normal 0 1 0
    outer loop
      vertex 12 23 -9
      vertex 6 23 4.76235
      vertex 12 23 4.76235
    endloop
  endfacet
  facet normal -1 0 0
    outer loop
      vertex 6 14.6582 -4.42322
      vertex 6 23 -9
      vertex 6 13.8211 -4.07647
    endloop
  endfacet
  facet normal -1 0 0
    outer loop
      vertex 6 11.4 0.453061
      vertex 6 0 9
      vertex 6 7.18487 9
    endloop
  endfacet
  facet normal -1 0 0
    outer loop
      vertex 6 18.1789 4.07647
      vertex 6 7.18487 9
      vertex 6 23 4.76235
    endloop
  endfacet
  facet normal -1 0 0
    outer loop
      vertex 6 11.5768 1.34177
      vertex 6 11.4 0.453061
      vertex 6 7.18487 9
    endloop
  endfacet
  facet normal -1 0 0
    outer loop
      vertex 6 0 -9
      vertex 6 0 9
      vertex 6 11.4 -0.45306
    endloop
  endfacet
  facet normal -1 0 0
    outer loop
      vertex 6 0 -9
      vertex 6 11.4 -0.45306
      vertex 6 11.5768 -1.34177
    endloop
  endfacet
  facet normal -1 0 0
    outer loop
      vertex 6 0 -9
      vertex 6 11.5768 -1.34177
      vertex 6 11.9235 -2.17892
    endloop
  endfacet
  facet normal -1 0 0
    outer loop
      vertex 6 0 -9
      vertex 6 11.9235 -2.17892
      vertex 6 12.4269 -2.93233
    endloop
  endfacet
  facet normal -1 0 0
    outer loop
      vertex 6 0 -9
      vertex 6 12.4269 -2.93233
      vertex 6 13.0677 -3.57305
    endloop
  endfacet
  facet normal -1 0 0
    outer loop
      vertex 6 0 -9
      vertex 6 13.0677 -3.57305
      vertex 6 13.8211 -4.07647
    endloop
  endfacet
  facet normal -1 0 0
    outer loop
      vertex 6 0 -9
      vertex 6 13.8211 -4.07647
      vertex 6 23 -9
    endloop
  endfacet
  facet normal -1 0 0
    outer loop
      vertex 6 15.5469 -4.6
      vertex 6 23 -9
      vertex 6 14.6582 -4.42322
    endloop
  endfacet
  facet normal -1 0 0
    outer loop
      vertex 6 16.4531 -4.6
      vertex 6 23 -9
      vertex 6 15.5469 -4.6
    endloop
  endfacet
  facet normal -1 0 0
    outer loop
      vertex 6 17.3418 -4.42322
      vertex 6 23 -9
      vertex 6 16.4531 -4.6
    endloop
  endfacet
  facet normal -1 0 0
    outer loop
      vertex 6 11.9235 2.17892
      vertex 6 7.18487 9
      vertex 6 12.4269 2.93233
    endloop
  endfacet
  facet normal -1 0 0
    outer loop
      vertex 6 18.9323 -3.57305
      vertex 6 23 -9
      vertex 6 18.1789 -4.07647
    endloop
  endfacet
  facet normal -1 0 0
    outer loop
      vertex 6 20.6 -0.453061
      vertex 6 23 4.76235
      vertex 6 20.4232 -1.34177
    endloop
  endfacet
  facet normal -1 0 0
    outer loop
      vertex 6 23 -9
      vertex 6 18.9323 -3.57305
      vertex 6 19.5731 -2.93233
    endloop
  endfacet
  facet normal -1 0 0
    outer loop
      vertex 6 23 -9
      vertex 6 19.5731 -2.93233
      vertex 6 20.0765 -2.17892
    endloop
  endfacet
  facet normal -1 0 0
    outer loop
      vertex 6 23 -9
      vertex 6 20.0765 -2.17892
      vertex 6 23 4.76235
    endloop
  endfacet
  facet normal -1 0 0
    outer loop
      vertex 6 20.0765 -2.17892
      vertex 6 20.4232 -1.34177
      vertex 6 23 4.76235
    endloop
  endfacet
  facet normal -1 0 0
    outer loop
      vertex 6 20.6 0.45306
      vertex 6 23 4.76235
      vertex 6 20.6 -0.453061
    endloop
  endfacet
  facet normal -1 0 0
    outer loop
      vertex 6 12.4269 2.93233
      vertex 6 7.18487 9
      vertex 6 13.0677 3.57305
    endloop
  endfacet
  facet normal -1 0 0
    outer loop
      vertex 6 16.4531 4.6
      vertex 6 7.18487 9
      vertex 6 17.3418 4.42322
    endloop
  endfacet
  facet normal -1 0 0
    outer loop
      vertex 6 13.8211 4.07647
      vertex 6 7.18487 9
      vertex 6 14.6582 4.42322
    endloop
  endfacet
  facet normal -1 0 0
    outer loop
      vertex 6 20.6 0.45306
      vertex 6 20.4232 1.34177
      vertex 6 23 4.76235
    endloop
  endfacet
  facet normal -1 0 0
    outer loop
      vertex 6 20.4232 1.34177
      vertex 6 20.0765 2.17892
      vertex 6 23 4.76235
    endloop
  endfacet
  facet normal -1 0 0
    outer loop
      vertex 6 14.6582 4.42322
      vertex 6 7.18487 9
      vertex 6 15.5469 4.6
    endloop
  endfacet
  facet normal -1 0 0
    outer loop
      vertex 6 20.0765 2.17892
      vertex 6 19.5731 2.93233
      vertex 6 23 4.76235
    endloop
  endfacet
  facet normal -1 0 0
    outer loop
      vertex 6 15.5469 4.6
      vertex 6 7.18487 9
      vertex 6 16.4531 4.6
    endloop
  endfacet
  facet normal -1 0 0
    outer loop
      vertex 6 19.5731 2.93233
      vertex 6 18.9323 3.57305
      vertex 6 23 4.76235
    endloop
  endfacet
  facet normal -1 0 0
    outer loop
      vertex 6 17.3418 4.42322
      vertex 6 7.18487 9
      vertex 6 18.1789 4.07647
    endloop
  endfacet
  facet normal -1 0 0
    outer loop
      vertex 6 18.9323 3.57305
      vertex 6 18.1789 4.07647
      vertex 6 23 4.76235
    endloop
  endfacet
  facet normal -1 0 0
    outer loop
      vertex 6 13.0677 3.57305
      vertex 6 7.18487 9
      vertex 6 13.8211 4.07647
    endloop
  endfacet
  facet normal -1 0 0
    outer loop
      vertex 6 11.9235 2.17892
      vertex 6 11.5768 1.34177
      vertex 6 7.18487 9
    endloop
  endfacet
  facet normal -1 0 0
    outer loop
      vertex 6 11.4 -0.45306
      vertex 6 0 9
      vertex 6 11.4 0.453061
    endloop
  endfacet
  facet normal -1 0 0
    outer loop
      vertex 6 18.1789 -4.07647
      vertex 6 23 -9
      vertex 6 17.3418 -4.42322
    endloop
  endfacet
  facet normal 0 1 0
    outer loop
      vertex 6 0 9
      vertex 6 0 -9
      vertex -6 0 9
    endloop
  endfacet
  facet normal 0 1 0
    outer loop
      vertex -6 0 9
      vertex 6 0 -9
      vertex -6 0 -9
    endloop
  endfacet
  facet normal 1 0 0
    outer loop
      vertex -6 15.5469 4.6
      vertex -6 23 4.76235
      vertex -6 7.18487 9
    endloop
  endfacet
  facet normal 1 0 0
    outer loop
      vertex -6 17.3418 4.42322
      vertex -6 18.1789 4.07647
      vertex -6 23 4.76235
    endloop
  endfacet
  facet normal 1 0 0
    outer loop
      vertex -6 16.4531 4.6
      vertex -6 17.3418 4.42322
      vertex -6 23 4.76235
    endloop
  endfacet
  facet normal 1 0 0
    outer loop
      vertex -6 0 9
      vertex -6 11.4 0.453061
      vertex -6 7.18487 9
    endloop
  endfacet
  facet normal 1 0 0
    outer loop
      vertex -6 11.4 0.453061
      vertex -6 11.5768 1.34177
      vertex -6 7.18487 9
    endloop
  endfacet
  facet normal 1 0 0
    outer loop
      vertex -6 12.4269 -2.93233
      vertex -6 11.9235 -2.17892
      vertex -6 0 9
    endloop
  endfacet
  facet normal 1 0 0
    outer loop
      vertex -6 11.5768 1.34177
      vertex -6 11.9235 2.17892
      vertex -6 7.18487 9
    endloop
  endfacet
  facet normal 1 0 0
    outer loop
      vertex -6 11.9235 2.17892
      vertex -6 12.4269 2.93233
      vertex -6 7.18487 9
    endloop
  endfacet
  facet normal 1 0 0
    outer loop
      vertex -6 13.0677 3.57305
      vertex -6 13.8211 4.07647
      vertex -6 7.18487 9
    endloop
  endfacet
  facet normal 1 0 0
    outer loop
      vertex -6 20.6 0.45306
      vertex -6 20.6 -0.453061
      vertex -6 23 -9
    endloop
  endfacet
  facet normal 1 0 0
    outer loop
      vertex -6 13.8211 4.07647
      vertex -6 14.6582 4.42322
      vertex -6 7.18487 9
    endloop
  endfacet
  facet normal 1 0 0
    outer loop
      vertex -6 14.6582 4.42322
      vertex -6 15.5469 4.6
      vertex -6 7.18487 9
    endloop
  endfacet
  facet normal 1 0 0
    outer loop
      vertex -6 16.4531 4.6
      vertex -6 23 4.76235
      vertex -6 15.5469 4.6
    endloop
  endfacet
  facet normal 1 0 0
    outer loop
      vertex -6 20.6 -0.453061
      vertex -6 20.4232 -1.34177
      vertex -6 23 -9
    endloop
  endfacet
  facet normal 1 0 0
    outer loop
      vertex -6 18.9323 3.57305
      vertex -6 23 4.76235
      vertex -6 18.1789 4.07647
    endloop
  endfacet
  facet normal 1 0 0
    outer loop
      vertex -6 19.5731 2.93233
      vertex -6 23 4.76235
      vertex -6 18.9323 3.57305
    endloop
  endfacet
  facet normal 1 0 0
    outer loop
      vertex -6 20.4232 -1.34177
      vertex -6 20.0765 -2.17892
      vertex -6 23 -9
    endloop
  endfacet
  facet normal 1 0 0
    outer loop
      vertex -6 20.0765 2.17892
      vertex -6 23 4.76235
      vertex -6 19.5731 2.93233
    endloop
  endfacet
  facet normal 1 0 0
    outer loop
      vertex -6 20.4232 1.34177
      vertex -6 23 4.76235
      vertex -6 20.0765 2.17892
    endloop
  endfacet
  facet normal 1 0 0
    outer loop
      vertex -6 23 -9
      vertex -6 23 4.76235
      vertex -6 20.4232 1.34177
    endloop
  endfacet
  facet normal 1 0 0
    outer loop
      vertex -6 23 -9
      vertex -6 20.4232 1.34177
      vertex -6 20.6 0.45306
    endloop
  endfacet
  facet normal 1 0 0
    outer loop
      vertex -6 18.9323 -3.57305
      vertex -6 18.1789 -4.07647
      vertex -6 23 -9
    endloop
  endfacet
  facet normal 1 0 0
    outer loop
      vertex -6 23 -9
      vertex -6 20.0765 -2.17892
      vertex -6 19.5731 -2.93233
    endloop
  endfacet
  facet normal 1 0 0
    outer loop
      vertex -6 23 -9
      vertex -6 19.5731 -2.93233
      vertex -6 18.9323 -3.57305
    endloop
  endfacet
  facet normal 1 0 0
    outer loop
      vertex -6 12.4269 2.93233
      vertex -6 13.0677 3.57305
      vertex -6 7.18487 9
    endloop
  endfacet
  facet normal 1 0 0
    outer loop
      vertex -6 18.1789 -4.07647
      vertex -6 17.3418 -4.42322
      vertex -6 23 -9
    endloop
  endfacet
  facet normal 1 0 0
    outer loop
      vertex -6 0 -9
      vertex -6 23 -9
      vertex -6 16.4531 -4.6
    endloop
  endfacet
  facet normal 1 0 0
    outer loop
      vertex -6 0 -9
      vertex -6 16.4531 -4.6
      vertex -6 15.5469 -4.6
    endloop
  endfacet
  facet normal 1 0 0
    outer loop
      vertex -6 11.5768 -1.34177
      vertex -6 11.4 -0.45306
      vertex -6 0 9
    endloop
  endfacet
  facet normal 1 0 0
    outer loop
      vertex -6 0 -9
      vertex -6 15.5469 -4.6
      vertex -6 14.6582 -4.42322
    endloop
  endfacet
  facet normal 1 0 0
    outer loop
      vertex -6 11.9235 -2.17892
      vertex -6 11.5768 -1.34177
      vertex -6 0 9
    endloop
  endfacet
  facet normal 1 0 0
    outer loop
      vertex -6 0 -9
      vertex -6 14.6582 -4.42322
      vertex -6 13.8211 -4.07647
    endloop
  endfacet
  facet normal 1 0 0
    outer loop
      vertex -6 0 -9
      vertex -6 13.0677 -3.57305
      vertex -6 0 9
    endloop
  endfacet
  facet normal 1 0 0
    outer loop
      vertex -6 0 -9
      vertex -6 13.8211 -4.07647
      vertex -6 13.0677 -3.57305
    endloop
  endfacet
  facet normal 1 0 0
    outer loop
      vertex -6 13.0677 -3.57305
      vertex -6 12.4269 -2.93233
      vertex -6 0 9
    endloop
  endfacet
  facet normal 1 0 0
    outer loop
      vertex -6 17.3418 -4.42322
      vertex -6 16.4531 -4.6
      vertex -6 23 -9
    endloop
  endfacet
  facet normal 1 0 0
    outer loop
      vertex -6 11.4 -0.45306
      vertex -6 11.4 0.453061
      vertex -6 0 9
    endloop
  endfacet
  facet normal 0 1 0
    outer loop
      vertex -6 23 4.76235
      vertex -6 23 -9
      vertex -12 23 4.76235
    endloop
  endfacet
  facet normal 0 1 0
    outer loop
      vertex -12 23 4.76235
      vertex -6 23 -9
      vertex -12 23 -9
    endloop
  endfacet
  facet normal -1 0 0
    outer loop
      vertex -12 7.18487 9
      vertex -12 23 4.76235
      vertex -12 0 9
    endloop
  endfacet
  facet normal -1 0 0
    outer loop
      vertex -12 17.631 -2.825
      vertex -12 23 4.76235
      vertex -12 23 -9
    endloop
  endfacet
  facet normal -1 0 0
    outer loop
      vertex -12 14.369 -2.825
      vertex -12 23 -9
      vertex -12 0 -9
    endloop
  endfacet
  facet normal -1 0 0
    outer loop
      vertex -12 17.631 -2.825
      vertex -12 23 -9
      vertex -12 14.369 -2.825
    endloop
  endfacet
  facet normal -1 0 0
    outer loop
      vertex -12 0 9
      vertex -12 14.369 -2.825
      vertex -12 0 -9
    endloop
  endfacet
  facet normal -1 0 0
    outer loop
      vertex -12 19.262 -7.24316e-16
      vertex -12 23 4.76235
      vertex -12 17.631 -2.825
    endloop
  endfacet
  facet normal -1 0 0
    outer loop
      vertex -12 12.738 7.24316e-16
      vertex -12 0 9
      vertex -12 14.369 2.825
    endloop
  endfacet
  facet normal -1 0 0
    outer loop
      vertex -12 17.631 2.825
      vertex -12 23 4.76235
      vertex -12 19.262 -7.24316e-16
    endloop
  endfacet
  facet normal -1 0 0
    outer loop
      vertex -12 0 9
      vertex -12 23 4.76235
      vertex -12 17.631 2.825
    endloop
  endfacet
  facet normal -1 0 0
    outer loop
      vertex -12 0 9
      vertex -12 17.631 2.825
      vertex -12 14.369 2.825
    endloop
  endfacet
  facet normal -1 0 0
    outer loop
      vertex -12 14.369 -2.825
      vertex -12 0 9
      vertex -12 12.738 7.24316e-16
    endloop
  endfacet
  facet normal 0 0.258819 0.965926
    outer loop
      vertex -6 7.18487 9
      vertex -6 23 4.76235
      vertex -12 23 4.76235
    endloop
  endfacet
  facet normal 0 0.258819 0.965926
    outer loop
      vertex -12 7.18487 9
      vertex -6 7.18487 9
      vertex -12 23 4.76235
    endloop
  endfacet
  facet normal 0 0.258819 0.965926
    outer loop
      vertex 12 7.18487 9
      vertex 12 23 4.76235
      vertex 6 23 4.76235
    endloop
  endfacet
  facet normal 0 0.258819 0.965926
    outer loop
      vertex 6 7.18487 9
      vertex 12 7.18487 9
      vertex 6 23 4.76235
    endloop
  endfacet
  facet normal -1.11022e-16 0.866025 0.5
    outer loop
      vertex 12 14.369 -2.825
      vertex 10 14.369 -2.825
      vertex 12 12.738 7.24316e-16
    endloop
  endfacet
  facet normal -1.11022e-16 0.866025 0.5
    outer loop
      vertex 12 12.738 7.24316e-16
      vertex 10 14.369 -2.825
      vertex 10 12.738 2.80227e-16
    endloop
  endfacet
  facet normal -2.22045e-16 2.22045e-16 1
    outer loop
      vertex 12 14.369 -2.825
      vertex 12 17.631 -2.825
      vertex 10 17.631 -2.825
    endloop
  endfacet
  facet normal -2.22045e-16 2.22045e-16 1
    outer loop
      vertex 10 14.369 -2.825
      vertex 12 14.369 -2.825
      vertex 10 17.631 -2.825
    endloop
  endfacet
  facet normal -1.11022e-16 -0.866025 0.5
    outer loop
      vertex 10 17.631 -2.825
      vertex 12 17.631 -2.825
      vertex 12 19.262 -7.24316e-16
    endloop
  endfacet
  facet normal -1.11022e-16 -0.866025 0.5
    outer loop
      vertex 10 19.262 -1.16841e-15
      vertex 10 17.631 -2.825
      vertex 12 19.262 -7.24316e-16
    endloop
  endfacet
  facet normal 1.11022e-16 -0.866025 -0.5
    outer loop
      vertex 10 19.262 -1.16841e-15
      vertex 12 19.262 -7.24316e-16
      vertex 12 17.631 2.825
    endloop
  endfacet
  facet normal 1.11022e-16 -0.866025 -0.5
    outer loop
      vertex 10 17.631 2.825
      vertex 10 19.262 -1.16841e-15
      vertex 12 17.631 2.825
    endloop
  endfacet
  facet normal 2.22045e-16 -2.22045e-16 -1
    outer loop
      vertex 12 17.631 2.825
      vertex 12 14.369 2.825
      vertex 10 17.631 2.825
    endloop
  endfacet
  facet normal 2.22045e-16 -2.22045e-16 -1
    outer loop
      vertex 10 17.631 2.825
      vertex 12 14.369 2.825
      vertex 10 14.369 2.825
    endloop
  endfacet
  facet normal 1.11022e-16 0.866025 -0.5
    outer loop
      vertex 12 12.738 7.24316e-16
      vertex 10 12.738 2.80227e-16
      vertex 12 14.369 2.825
    endloop
  endfacet
  facet normal 1.11022e-16 0.866025 -0.5
    outer loop
      vertex 12 14.369 2.825
      vertex 10 12.738 2.80227e-16
      vertex 10 14.369 2.825
    endloop
  endfacet
  facet normal -0.784682 -0.619899 0
    outer loop
      vertex 4.025 13.9 -0.206832
      vertex 6 11.4 -0.45306
      vertex 4.025 13.9 0.206832
    endloop
  endfacet
  facet normal -0.784682 -0.619899 0
    outer loop
      vertex 4.025 13.9 0.206832
      vertex 6 11.4 -0.45306
      vertex 6 11.4 0.453061
    endloop
  endfacet
  facet normal -0.784682 -0.607988 0.120935
    outer loop
      vertex 4.025 13.9807 0.612548
      vertex 4.025 13.9 0.206832
      vertex 6 11.4 0.453061
    endloop
  endfacet
  facet normal -0.784682 -0.607988 0.120936
    outer loop
      vertex 6 11.5768 1.34177
      vertex 4.025 13.9807 0.612548
      vertex 6 11.4 0.453061
    endloop
  endfacet
  facet normal -0.784682 -0.572712 0.237225
    outer loop
      vertex 6 11.9235 2.17892
      vertex 4.025 13.9807 0.612548
      vertex 6 11.5768 1.34177
    endloop
  endfacet
  facet normal -0.784682 -0.572711 0.237226
    outer loop
      vertex 4.025 14.139 0.994723
      vertex 4.025 13.9807 0.612548
      vertex 6 11.9235 2.17892
    endloop
  endfacet
  facet normal -0.784682 -0.515427 0.344397
    outer loop
      vertex 6 12.4269 2.93233
      vertex 4.025 14.139 0.994723
      vertex 6 11.9235 2.17892
    endloop
  endfacet
  facet normal -0.784682 -0.515426 0.344398
    outer loop
      vertex 4.025 14.3688 1.33867
      vertex 4.025 14.139 0.994723
      vertex 6 12.4269 2.93233
    endloop
  endfacet
  facet normal -0.784682 -0.438335 0.438334
    outer loop
      vertex 4.025 14.6613 1.63118
      vertex 4.025 14.3688 1.33867
      vertex 6 12.4269 2.93233
    endloop
  endfacet
  facet normal -0.784682 -0.438335 0.438335
    outer loop
      vertex 6 13.0677 3.57305
      vertex 4.025 14.6613 1.63118
      vertex 6 12.4269 2.93233
    endloop
  endfacet
  facet normal -0.784682 -0.344397 0.515427
    outer loop
      vertex 6 13.8211 4.07647
      vertex 4.025 14.6613 1.63118
      vertex 6 13.0677 3.57305
    endloop
  endfacet
  facet normal -0.784682 -0.344397 0.515427
    outer loop
      vertex 4.025 15.0053 1.861
      vertex 4.025 14.6613 1.63118
      vertex 6 13.8211 4.07647
    endloop
  endfacet
  facet normal -0.784682 -0.237225 0.572712
    outer loop
      vertex 6 14.6582 4.42322
      vertex 4.025 15.0053 1.861
      vertex 6 13.8211 4.07647
    endloop
  endfacet
  facet normal -0.784682 -0.237224 0.572712
    outer loop
      vertex 4.025 15.3875 2.0193
      vertex 4.025 15.0053 1.861
      vertex 6 14.6582 4.42322
    endloop
  endfacet
  facet normal -0.784682 -0.120937 0.607987
    outer loop
      vertex 4.025 15.7932 2.1
      vertex 4.025 15.3875 2.0193
      vertex 6 14.6582 4.42322
    endloop
  endfacet
  facet normal -0.784682 -0.120936 0.607987
    outer loop
      vertex 6 15.5469 4.6
      vertex 4.025 15.7932 2.1
      vertex 6 14.6582 4.42322
    endloop
  endfacet
  facet normal -0.784682 0 0.619899
    outer loop
      vertex 4.025 15.7932 2.1
      vertex 6 15.5469 4.6
      vertex 4.025 16.2068 2.1
    endloop
  endfacet
  facet normal -0.784682 0 0.619899
    outer loop
      vertex 4.025 16.2068 2.1
      vertex 6 15.5469 4.6
      vertex 6 16.4531 4.6
    endloop
  endfacet
  facet normal -0.784682 0.120935 0.607988
    outer loop
      vertex 4.025 16.6125 2.0193
      vertex 4.025 16.2068 2.1
      vertex 6 16.4531 4.6
    endloop
  endfacet
  facet normal -0.784682 0.120936 0.607988
    outer loop
      vertex 6 17.3418 4.42322
      vertex 4.025 16.6125 2.0193
      vertex 6 16.4531 4.6
    endloop
  endfacet
  facet normal -0.784682 0.237225 0.572712
    outer loop
      vertex 6 18.1789 4.07647
      vertex 4.025 16.6125 2.0193
      vertex 6 17.3418 4.42322
    endloop
  endfacet
  facet normal -0.784682 0.237226 0.572711
    outer loop
      vertex 4.025 16.9947 1.861
      vertex 4.025 16.6125 2.0193
      vertex 6 18.1789 4.07647
    endloop
  endfacet
  facet normal -0.784682 0.344397 0.515427
    outer loop
      vertex 6 18.9323 3.57305
      vertex 4.025 16.9947 1.861
      vertex 6 18.1789 4.07647
    endloop
  endfacet
  facet normal -0.784682 0.344398 0.515426
    outer loop
      vertex 4.025 17.3387 1.63118
      vertex 4.025 16.9947 1.861
      vertex 6 18.9323 3.57305
    endloop
  endfacet
  facet normal -0.784682 0.438334 0.438335
    outer loop
      vertex 4.025 17.6312 1.33867
      vertex 4.025 17.3387 1.63118
      vertex 6 18.9323 3.57305
    endloop
  endfacet
  facet normal -0.784682 0.438335 0.438335
    outer loop
      vertex 6 19.5731 2.93233
      vertex 4.025 17.6312 1.33867
      vertex 6 18.9323 3.57305
    endloop
  endfacet
  facet normal -0.784682 0.515427 0.344397
    outer loop
      vertex 6 20.0765 2.17892
      vertex 4.025 17.6312 1.33867
      vertex 6 19.5731 2.93233
    endloop
  endfacet
  facet normal -0.784682 0.515427 0.344397
    outer loop
      vertex 4.025 17.861 0.994723
      vertex 4.025 17.6312 1.33867
      vertex 6 20.0765 2.17892
    endloop
  endfacet
  facet normal -0.784682 0.572712 0.237225
    outer loop
      vertex 6 20.4232 1.34177
      vertex 4.025 17.861 0.994723
      vertex 6 20.0765 2.17892
    endloop
  endfacet
  facet normal -0.784682 0.572712 0.237224
    outer loop
      vertex 4.025 18.0193 0.612547
      vertex 4.025 17.861 0.994723
      vertex 6 20.4232 1.34177
    endloop
  endfacet
  facet normal -0.784682 0.607987 0.120937
    outer loop
      vertex 4.025 18.1 0.206832
      vertex 4.025 18.0193 0.612547
      vertex 6 20.4232 1.34177
    endloop
  endfacet
  facet normal -0.784682 0.607987 0.120936
    outer loop
      vertex 6 20.6 0.45306
      vertex 4.025 18.1 0.206832
      vertex 6 20.4232 1.34177
    endloop
  endfacet
  facet normal -0.784682 0.619899 0
    outer loop
      vertex 4.025 18.1 -0.206832
      vertex 4.025 18.1 0.206832
      vertex 6 20.6 -0.453061
    endloop
  endfacet
  facet normal -0.784682 0.619899 0
    outer loop
      vertex 6 20.6 -0.453061
      vertex 4.025 18.1 0.206832
      vertex 6 20.6 0.45306
    endloop
  endfacet
  facet normal -0.784682 0.607988 -0.120935
    outer loop
      vertex 6 20.6 -0.453061
      vertex 4.025 18.0193 -0.612548
      vertex 4.025 18.1 -0.206832
    endloop
  endfacet
  facet normal -0.784682 0.607988 -0.120936
    outer loop
      vertex 6 20.4232 -1.34177
      vertex 4.025 18.0193 -0.612548
      vertex 6 20.6 -0.453061
    endloop
  endfacet
  facet normal -0.784682 0.572712 -0.237225
    outer loop
      vertex 6 20.0765 -2.17892
      vertex 4.025 18.0193 -0.612548
      vertex 6 20.4232 -1.34177
    endloop
  endfacet
  facet normal -0.784682 0.572711 -0.237226
    outer loop
      vertex 6 20.0765 -2.17892
      vertex 4.025 17.861 -0.994723
      vertex 4.025 18.0193 -0.612548
    endloop
  endfacet
  facet normal -0.784682 0.515427 -0.344397
    outer loop
      vertex 6 19.5731 -2.93233
      vertex 4.025 17.861 -0.994723
      vertex 6 20.0765 -2.17892
    endloop
  endfacet
  facet normal -0.784682 0.438335 -0.438334
    outer loop
      vertex 6 19.5731 -2.93233
      vertex 4.025 17.3387 -1.63118
      vertex 4.025 17.6312 -1.33867
    endloop
  endfacet
  facet normal -0.784682 0.438335 -0.438335
    outer loop
      vertex 6 18.9323 -3.57305
      vertex 4.025 17.3387 -1.63118
      vertex 6 19.5731 -2.93233
    endloop
  endfacet
  facet normal -0.784682 0.515426 -0.344398
    outer loop
      vertex 6 19.5731 -2.93233
      vertex 4.025 17.6312 -1.33867
      vertex 4.025 17.861 -0.994723
    endloop
  endfacet
  facet normal -0.784682 0.344397 -0.515427
    outer loop
      vertex 6 18.1789 -4.07647
      vertex 4.025 17.3387 -1.63118
      vertex 6 18.9323 -3.57305
    endloop
  endfacet
  facet normal -0.784682 0.344397 -0.515427
    outer loop
      vertex 6 18.1789 -4.07647
      vertex 4.025 16.9947 -1.861
      vertex 4.025 17.3387 -1.63118
    endloop
  endfacet
  facet normal -0.784682 0.237225 -0.572712
    outer loop
      vertex 6 17.3418 -4.42322
      vertex 4.025 16.9947 -1.861
      vertex 6 18.1789 -4.07647
    endloop
  endfacet
  facet normal -0.784682 0.120937 -0.607987
    outer loop
      vertex 6 17.3418 -4.42322
      vertex 4.025 16.2068 -2.1
      vertex 4.025 16.6125 -2.0193
    endloop
  endfacet
  facet normal -0.784682 0.120936 -0.607987
    outer loop
      vertex 6 16.4531 -4.6
      vertex 4.025 16.2068 -2.1
      vertex 6 17.3418 -4.42322
    endloop
  endfacet
  facet normal -0.784682 0.237224 -0.572712
    outer loop
      vertex 6 17.3418 -4.42322
      vertex 4.025 16.6125 -2.0193
      vertex 4.025 16.9947 -1.861
    endloop
  endfacet
  facet normal -0.784682 0 -0.619899
    outer loop
      vertex 4.025 15.7932 -2.1
      vertex 4.025 16.2068 -2.1
      vertex 6 15.5469 -4.6
    endloop
  endfacet
  facet normal -0.784682 0 -0.619899
    outer loop
      vertex 6 15.5469 -4.6
      vertex 4.025 16.2068 -2.1
      vertex 6 16.4531 -4.6
    endloop
  endfacet
  facet normal -0.784682 -0.120935 -0.607988
    outer loop
      vertex 6 15.5469 -4.6
      vertex 4.025 15.3875 -2.0193
      vertex 4.025 15.7932 -2.1
    endloop
  endfacet
  facet normal -0.784682 -0.120936 -0.607988
    outer loop
      vertex 6 14.6582 -4.42322
      vertex 4.025 15.3875 -2.0193
      vertex 6 15.5469 -4.6
    endloop
  endfacet
  facet normal -0.784682 -0.237225 -0.572712
    outer loop
      vertex 6 13.8211 -4.07647
      vertex 4.025 15.3875 -2.0193
      vertex 6 14.6582 -4.42322
    endloop
  endfacet
  facet normal -0.784682 -0.237226 -0.572711
    outer loop
      vertex 6 13.8211 -4.07647
      vertex 4.025 15.0053 -1.861
      vertex 4.025 15.3875 -2.0193
    endloop
  endfacet
  facet normal -0.784682 -0.344397 -0.515427
    outer loop
      vertex 6 13.0677 -3.57305
      vertex 4.025 15.0053 -1.861
      vertex 6 13.8211 -4.07647
    endloop
  endfacet
  facet normal -0.784682 -0.344398 -0.515426
    outer loop
      vertex 6 13.0677 -3.57305
      vertex 4.025 14.6613 -1.63118
      vertex 4.025 15.0053 -1.861
    endloop
  endfacet
  facet normal -0.784682 -0.438334 -0.438335
    outer loop
      vertex 6 13.0677 -3.57305
      vertex 4.025 14.3688 -1.33867
      vertex 4.025 14.6613 -1.63118
    endloop
  endfacet
  facet normal -0.784682 -0.438335 -0.438335
    outer loop
      vertex 6 12.4269 -2.93233
      vertex 4.025 14.3688 -1.33867
      vertex 6 13.0677 -3.57305
    endloop
  endfacet
  facet normal -0.784682 -0.515427 -0.344397
    outer loop
      vertex 6 11.9235 -2.17892
      vertex 4.025 14.3688 -1.33867
      vertex 6 12.4269 -2.93233
    endloop
  endfacet
  facet normal -0.784682 -0.515427 -0.344397
    outer loop
      vertex 6 11.9235 -2.17892
      vertex 4.025 14.139 -0.994723
      vertex 4.025 14.3688 -1.33867
    endloop
  endfacet
  facet normal -0.784682 -0.572712 -0.237225
    outer loop
      vertex 6 11.5768 -1.34177
      vertex 4.025 14.139 -0.994723
      vertex 6 11.9235 -2.17892
    endloop
  endfacet
  facet normal -0.784682 -0.572712 -0.237224
    outer loop
      vertex 6 11.5768 -1.34177
      vertex 4.025 13.9807 -0.612547
      vertex 4.025 14.139 -0.994723
    endloop
  endfacet
  facet normal -0.784682 -0.607987 -0.120937
    outer loop
      vertex 6 11.5768 -1.34177
      vertex 4.025 13.9 -0.206832
      vertex 4.025 13.9807 -0.612547
    endloop
  endfacet
  facet normal -0.784682 -0.607987 -0.120936
    outer loop
      vertex 6 11.4 -0.45306
      vertex 4.025 13.9 -0.206832
      vertex 6 11.5768 -1.34177
    endloop
  endfacet
  facet normal 0.784682 -0.607988 0.120936
    outer loop
      vertex -4.025 13.9807 0.612548
      vertex -6 11.5768 1.34177
      vertex -6 11.4 0.453061
    endloop
  endfacet
  facet normal 0.784682 -0.607988 0.120935
    outer loop
      vertex -4.025 13.9 0.206832
      vertex -4.025 13.9807 0.612548
      vertex -6 11.4 0.453061
    endloop
  endfacet
  facet normal 0.784682 -0.619899 0
    outer loop
      vertex -4.025 13.9 -0.206832
      vertex -4.025 13.9 0.206832
      vertex -6 11.4 0.453061
    endloop
  endfacet
  facet normal 0.784682 -0.619899 0
    outer loop
      vertex -6 11.4 -0.45306
      vertex -4.025 13.9 -0.206832
      vertex -6 11.4 0.453061
    endloop
  endfacet
  facet normal 0.784682 -0.607987 -0.120936
    outer loop
      vertex -6 11.5768 -1.34177
      vertex -4.025 13.9 -0.206832
      vertex -6 11.4 -0.45306
    endloop
  endfacet
  facet normal 0.784682 -0.607987 -0.120937
    outer loop
      vertex -4.025 13.9807 -0.612547
      vertex -4.025 13.9 -0.206832
      vertex -6 11.5768 -1.34177
    endloop
  endfacet
  facet normal 0.784682 -0.572712 -0.237224
    outer loop
      vertex -4.025 14.139 -0.994723
      vertex -4.025 13.9807 -0.612547
      vertex -6 11.5768 -1.34177
    endloop
  endfacet
  facet normal 0.784682 -0.572712 -0.237225
    outer loop
      vertex -6 11.9235 -2.17892
      vertex -4.025 14.139 -0.994723
      vertex -6 11.5768 -1.34177
    endloop
  endfacet
  facet normal 0.784682 -0.515427 -0.344397
    outer loop
      vertex -4.025 14.3688 -1.33867
      vertex -4.025 14.139 -0.994723
      vertex -6 11.9235 -2.17892
    endloop
  endfacet
  facet normal 0.784682 -0.515427 -0.344397
    outer loop
      vertex -6 12.4269 -2.93233
      vertex -4.025 14.3688 -1.33867
      vertex -6 11.9235 -2.17892
    endloop
  endfacet
  facet normal 0.784682 -0.438335 -0.438335
    outer loop
      vertex -6 13.0677 -3.57305
      vertex -4.025 14.3688 -1.33867
      vertex -6 12.4269 -2.93233
    endloop
  endfacet
  facet normal 0.784682 -0.438334 -0.438335
    outer loop
      vertex -4.025 14.6613 -1.63118
      vertex -4.025 14.3688 -1.33867
      vertex -6 13.0677 -3.57305
    endloop
  endfacet
  facet normal 0.784682 -0.344398 -0.515426
    outer loop
      vertex -4.025 15.0053 -1.861
      vertex -4.025 14.6613 -1.63118
      vertex -6 13.0677 -3.57305
    endloop
  endfacet
  facet normal 0.784682 -0.344397 -0.515427
    outer loop
      vertex -6 13.8211 -4.07647
      vertex -4.025 15.0053 -1.861
      vertex -6 13.0677 -3.57305
    endloop
  endfacet
  facet normal 0.784682 -0.237226 -0.572711
    outer loop
      vertex -4.025 15.3875 -2.0193
      vertex -4.025 15.0053 -1.861
      vertex -6 13.8211 -4.07647
    endloop
  endfacet
  facet normal 0.784682 -0.237225 -0.572712
    outer loop
      vertex -6 14.6582 -4.42322
      vertex -4.025 15.3875 -2.0193
      vertex -6 13.8211 -4.07647
    endloop
  endfacet
  facet normal 0.784682 -0.120936 -0.607988
    outer loop
      vertex -6 15.5469 -4.6
      vertex -4.025 15.3875 -2.0193
      vertex -6 14.6582 -4.42322
    endloop
  endfacet
  facet normal 0.784682 -0.120935 -0.607988
    outer loop
      vertex -4.025 15.7932 -2.1
      vertex -4.025 15.3875 -2.0193
      vertex -6 15.5469 -4.6
    endloop
  endfacet
  facet normal 0.784682 0 -0.619899
    outer loop
      vertex -6 16.4531 -4.6
      vertex -4.025 16.2068 -2.1
      vertex -4.025 15.7932 -2.1
    endloop
  endfacet
  facet normal 0.784682 0 -0.619899
    outer loop
      vertex -6 15.5469 -4.6
      vertex -6 16.4531 -4.6
      vertex -4.025 15.7932 -2.1
    endloop
  endfacet
  facet normal 0.784682 0.120936 -0.607987
    outer loop
      vertex -6 17.3418 -4.42322
      vertex -4.025 16.2068 -2.1
      vertex -6 16.4531 -4.6
    endloop
  endfacet
  facet normal 0.784682 0.120937 -0.607987
    outer loop
      vertex -4.025 16.6125 -2.0193
      vertex -4.025 16.2068 -2.1
      vertex -6 17.3418 -4.42322
    endloop
  endfacet
  facet normal 0.784682 0.237224 -0.572712
    outer loop
      vertex -4.025 16.9947 -1.861
      vertex -4.025 16.6125 -2.0193
      vertex -6 17.3418 -4.42322
    endloop
  endfacet
  facet normal 0.784682 0.237225 -0.572712
    outer loop
      vertex -6 18.1789 -4.07647
      vertex -4.025 16.9947 -1.861
      vertex -6 17.3418 -4.42322
    endloop
  endfacet
  facet normal 0.784682 0.344397 -0.515427
    outer loop
      vertex -4.025 17.3387 -1.63118
      vertex -4.025 16.9947 -1.861
      vertex -6 18.1789 -4.07647
    endloop
  endfacet
  facet normal 0.784682 0.344397 -0.515427
    outer loop
      vertex -6 18.9323 -3.57305
      vertex -4.025 17.3387 -1.63118
      vertex -6 18.1789 -4.07647
    endloop
  endfacet
  facet normal 0.784682 0.438335 -0.438335
    outer loop
      vertex -6 19.5731 -2.93233
      vertex -4.025 17.3387 -1.63118
      vertex -6 18.9323 -3.57305
    endloop
  endfacet
  facet normal 0.784682 0.438335 -0.438334
    outer loop
      vertex -4.025 17.6312 -1.33867
      vertex -4.025 17.3387 -1.63118
      vertex -6 19.5731 -2.93233
    endloop
  endfacet
  facet normal 0.784682 0.515426 -0.344398
    outer loop
      vertex -4.025 17.861 -0.994723
      vertex -4.025 17.6312 -1.33867
      vertex -6 19.5731 -2.93233
    endloop
  endfacet
  facet normal 0.784682 0.515427 -0.344397
    outer loop
      vertex -6 20.0765 -2.17892
      vertex -4.025 17.861 -0.994723
      vertex -6 19.5731 -2.93233
    endloop
  endfacet
  facet normal 0.784682 0.572711 -0.237226
    outer loop
      vertex -4.025 18.0193 -0.612548
      vertex -4.025 17.861 -0.994723
      vertex -6 20.0765 -2.17892
    endloop
  endfacet
  facet normal 0.784682 0.572712 -0.237225
    outer loop
      vertex -6 20.4232 -1.34177
      vertex -4.025 18.0193 -0.612548
      vertex -6 20.0765 -2.17892
    endloop
  endfacet
  facet normal 0.784682 0.607988 -0.120936
    outer loop
      vertex -6 20.6 -0.453061
      vertex -4.025 18.0193 -0.612548
      vertex -6 20.4232 -1.34177
    endloop
  endfacet
  facet normal 0.784682 0.619899 0
    outer loop
      vertex -6 20.6 0.45306
      vertex -4.025 18.1 0.206832
      vertex -4.025 18.1 -0.206832
    endloop
  endfacet
  facet normal 0.784682 0.619899 0
    outer loop
      vertex -6 20.6 -0.453061
      vertex -6 20.6 0.45306
      vertex -4.025 18.1 -0.206832
    endloop
  endfacet
  facet normal 0.784682 0.607988 -0.120935
    outer loop
      vertex -4.025 18.1 -0.206832
      vertex -4.025 18.0193 -0.612548
      vertex -6 20.6 -0.453061
    endloop
  endfacet
  facet normal 0.784682 0.607987 0.120936
    outer loop
      vertex -4.025 18.1 0.206832
      vertex -6 20.6 0.45306
      vertex -6 20.4232 1.34177
    endloop
  endfacet
  facet normal 0.784682 0.607987 0.120937
    outer loop
      vertex -4.025 18.0193 0.612547
      vertex -4.025 18.1 0.206832
      vertex -6 20.4232 1.34177
    endloop
  endfacet
  facet normal 0.784682 0.572712 0.237224
    outer loop
      vertex -4.025 17.861 0.994723
      vertex -4.025 18.0193 0.612547
      vertex -6 20.4232 1.34177
    endloop
  endfacet
  facet normal 0.784682 0.572712 0.237225
    outer loop
      vertex -4.025 17.861 0.994723
      vertex -6 20.4232 1.34177
      vertex -6 20.0765 2.17892
    endloop
  endfacet
  facet normal 0.784682 0.515427 0.344397
    outer loop
      vertex -4.025 17.6312 1.33867
      vertex -4.025 17.861 0.994723
      vertex -6 20.0765 2.17892
    endloop
  endfacet
  facet normal 0.784682 0.515427 0.344397
    outer loop
      vertex -4.025 17.6312 1.33867
      vertex -6 20.0765 2.17892
      vertex -6 19.5731 2.93233
    endloop
  endfacet
  facet normal 0.784682 0.438335 0.438335
    outer loop
      vertex -4.025 17.6312 1.33867
      vertex -6 19.5731 2.93233
      vertex -6 18.9323 3.57305
    endloop
  endfacet
  facet normal 0.784682 0.438334 0.438335
    outer loop
      vertex -4.025 17.3387 1.63118
      vertex -4.025 17.6312 1.33867
      vertex -6 18.9323 3.57305
    endloop
  endfacet
  facet normal 0.784682 0.344398 0.515426
    outer loop
      vertex -4.025 16.9947 1.861
      vertex -4.025 17.3387 1.63118
      vertex -6 18.9323 3.57305
    endloop
  endfacet
  facet normal 0.784682 0.344397 0.515427
    outer loop
      vertex -4.025 16.9947 1.861
      vertex -6 18.9323 3.57305
      vertex -6 18.1789 4.07647
    endloop
  endfacet
  facet normal 0.784682 0.237226 0.572711
    outer loop
      vertex -4.025 16.6125 2.0193
      vertex -4.025 16.9947 1.861
      vertex -6 18.1789 4.07647
    endloop
  endfacet
  facet normal 0.784682 0.237225 0.572712
    outer loop
      vertex -4.025 16.6125 2.0193
      vertex -6 18.1789 4.07647
      vertex -6 17.3418 4.42322
    endloop
  endfacet
  facet normal 0.784682 0.120936 0.607988
    outer loop
      vertex -4.025 16.6125 2.0193
      vertex -6 17.3418 4.42322
      vertex -6 16.4531 4.6
    endloop
  endfacet
  facet normal 0.784682 0.120935 0.607988
    outer loop
      vertex -4.025 16.2068 2.1
      vertex -4.025 16.6125 2.0193
      vertex -6 16.4531 4.6
    endloop
  endfacet
  facet normal 0.784682 0 0.619899
    outer loop
      vertex -4.025 15.7932 2.1
      vertex -4.025 16.2068 2.1
      vertex -6 16.4531 4.6
    endloop
  endfacet
  facet normal 0.784682 0 0.619899
    outer loop
      vertex -6 15.5469 4.6
      vertex -4.025 15.7932 2.1
      vertex -6 16.4531 4.6
    endloop
  endfacet
  facet normal 0.784682 -0.120936 0.607987
    outer loop
      vertex -4.025 15.7932 2.1
      vertex -6 15.5469 4.6
      vertex -6 14.6582 4.42322
    endloop
  endfacet
  facet normal 0.784682 -0.120937 0.607987
    outer loop
      vertex -4.025 15.3875 2.0193
      vertex -4.025 15.7932 2.1
      vertex -6 14.6582 4.42322
    endloop
  endfacet
  facet normal 0.784682 -0.237224 0.572712
    outer loop
      vertex -4.025 15.0053 1.861
      vertex -4.025 15.3875 2.0193
      vertex -6 14.6582 4.42322
    endloop
  endfacet
  facet normal 0.784682 -0.237225 0.572712
    outer loop
      vertex -4.025 15.0053 1.861
      vertex -6 14.6582 4.42322
      vertex -6 13.8211 4.07647
    endloop
  endfacet
  facet normal 0.784682 -0.344397 0.515427
    outer loop
      vertex -4.025 14.6613 1.63118
      vertex -4.025 15.0053 1.861
      vertex -6 13.8211 4.07647
    endloop
  endfacet
  facet normal 0.784682 -0.344397 0.515427
    outer loop
      vertex -4.025 14.6613 1.63118
      vertex -6 13.8211 4.07647
      vertex -6 13.0677 3.57305
    endloop
  endfacet
  facet normal 0.784682 -0.438335 0.438335
    outer loop
      vertex -4.025 14.6613 1.63118
      vertex -6 13.0677 3.57305
      vertex -6 12.4269 2.93233
    endloop
  endfacet
  facet normal 0.784682 -0.438335 0.438334
    outer loop
      vertex -4.025 14.3688 1.33867
      vertex -4.025 14.6613 1.63118
      vertex -6 12.4269 2.93233
    endloop
  endfacet
  facet normal 0.784682 -0.515426 0.344398
    outer loop
      vertex -4.025 14.139 0.994723
      vertex -4.025 14.3688 1.33867
      vertex -6 12.4269 2.93233
    endloop
  endfacet
  facet normal 0.784682 -0.515427 0.344397
    outer loop
      vertex -4.025 14.139 0.994723
      vertex -6 12.4269 2.93233
      vertex -6 11.9235 2.17892
    endloop
  endfacet
  facet normal 0.784682 -0.572711 0.237226
    outer loop
      vertex -4.025 13.9807 0.612548
      vertex -4.025 14.139 0.994723
      vertex -6 11.9235 2.17892
    endloop
  endfacet
  facet normal 0.784682 -0.572712 0.237225
    outer loop
      vertex -4.025 13.9807 0.612548
      vertex -6 11.9235 2.17892
      vertex -6 11.5768 1.34177
    endloop
  endfacet
  facet normal 1.11022e-16 0.866025 0.5
    outer loop
      vertex -12 12.738 7.24316e-16
      vertex -10 12.738 2.80227e-16
      vertex -12 14.369 -2.825
    endloop
  endfacet
  facet normal 1.11022e-16 0.866025 0.5
    outer loop
      vertex -12 14.369 -2.825
      vertex -10 12.738 2.80227e-16
      vertex -10 14.369 -2.825
    endloop
  endfacet
  facet normal 2.22045e-16 2.22045e-16 1
    outer loop
      vertex -12 17.631 -2.825
      vertex -12 14.369 -2.825
      vertex -10 14.369 -2.825
    endloop
  endfacet
  facet normal 2.22045e-16 2.22045e-16 1
    outer loop
      vertex -10 17.631 -2.825
      vertex -12 17.631 -2.825
      vertex -10 14.369 -2.825
    endloop
  endfacet
  facet normal -1.11022e-16 0.866025 -0.5
    outer loop
      vertex -12 12.738 7.24316e-16
      vertex -12 14.369 2.825
      vertex -10 12.738 2.80227e-16
    endloop
  endfacet
  facet normal -1.11022e-16 0.866025 -0.5
    outer loop
      vertex -10 12.738 2.80227e-16
      vertex -12 14.369 2.825
      vertex -10 14.369 2.825
    endloop
  endfacet
  facet normal -2.22045e-16 -2.22045e-16 -1
    outer loop
      vertex -12 14.369 2.825
      vertex -12 17.631 2.825
      vertex -10 14.369 2.825
    endloop
  endfacet
  facet normal -2.22045e-16 -2.22045e-16 -1
    outer loop
      vertex -10 14.369 2.825
      vertex -12 17.631 2.825
      vertex -10 17.631 2.825
    endloop
  endfacet
  facet normal -1.11022e-16 -0.866025 -0.5
    outer loop
      vertex -10 17.631 2.825
      vertex -12 17.631 2.825
      vertex -12 19.262 -7.24316e-16
    endloop
  endfacet
  facet normal -1.11022e-16 -0.866025 -0.5
    outer loop
      vertex -10 19.262 -1.16841e-15
      vertex -10 17.631 2.825
      vertex -12 19.262 -7.24316e-16
    endloop
  endfacet
  facet normal 1.11022e-16 -0.866025 0.5
    outer loop
      vertex -12 19.262 -7.24316e-16
      vertex -12 17.631 -2.825
      vertex -10 17.631 -2.825
    endloop
  endfacet
  facet normal 1.11022e-16 -0.866025 0.5
    outer loop
      vertex -10 19.262 -1.16841e-15
      vertex -12 19.262 -7.24316e-16
      vertex -10 17.631 -2.825
    endloop
  endfacet
  facet normal 1 0 2.22045e-16
    outer loop
      vertex 10 15.3373 -1.6
      vertex 10 14.369 -2.825
      vertex 10 17.631 -2.825
    endloop
  endfacet
  facet normal 1 0 2.22045e-16
    outer loop
      vertex 10 16.6627 -1.6
      vertex 10 15.3373 -1.6
      vertex 10 17.631 -2.825
    endloop
  endfacet
  facet normal 1 0 2.22045e-16
    outer loop
      vertex 10 15.3373 -1.6
      vertex 10 14.4 -0.662742
      vertex 10 12.738 2.80227e-16
    endloop
  endfacet
  facet normal 1 0 2.22045e-16
    outer loop
      vertex 10 17.6 0.662742
      vertex 10 17.6 -0.662742
      vertex 10 19.262 -1.16841e-15
    endloop
  endfacet
  facet normal 1 0 2.22045e-16
    outer loop
      vertex 10 17.631 2.825
      vertex 10 16.6627 1.6
      vertex 10 19.262 -1.16841e-15
    endloop
  endfacet
  facet normal 1 0 2.22045e-16
    outer loop
      vertex 10 14.4 0.662742
      vertex 10 15.3373 1.6
      vertex 10 12.738 2.80227e-16
    endloop
  endfacet
  facet normal 1 0 2.22045e-16
    outer loop
      vertex 10 16.6627 1.6
      vertex 10 17.6 0.662742
      vertex 10 19.262 -1.16841e-15
    endloop
  endfacet
  facet normal 1 0 2.22045e-16
    outer loop
      vertex 10 19.262 -1.16841e-15
      vertex 10 17.6 -0.662742
      vertex 10 17.631 -2.825
    endloop
  endfacet
  facet normal 1 0 2.22045e-16
    outer loop
      vertex 10 17.6 -0.662742
      vertex 10 16.6627 -1.6
      vertex 10 17.631 -2.825
    endloop
  endfacet
  facet normal 1 0 2.22045e-16
    outer loop
      vertex 10 12.738 2.80227e-16
      vertex 10 14.369 -2.825
      vertex 10 15.3373 -1.6
    endloop
  endfacet
  facet normal 1 0 2.22045e-16
    outer loop
      vertex 10 14.369 2.825
      vertex 10 15.3373 1.6
      vertex 10 17.631 2.825
    endloop
  endfacet
  facet normal 1 0 2.22045e-16
    outer loop
      vertex 10 14.369 2.825
      vertex 10 12.738 2.80227e-16
      vertex 10 15.3373 1.6
    endloop
  endfacet
  facet normal 1 0 2.22045e-16
    outer loop
      vertex 10 15.3373 1.6
      vertex 10 16.6627 1.6
      vertex 10 17.631 2.825
    endloop
  endfacet
  facet normal 1 0 2.22045e-16
    outer loop
      vertex 10 14.4 -0.662742
      vertex 10 14.4 0.662742
      vertex 10 12.738 2.80227e-16
    endloop
  endfacet
  facet normal -1 0 0
    outer loop
      vertex 4.025 13.9 -0.206832
      vertex 4.025 13.9 0.206832
      vertex 4.025 13.9807 -0.612547
    endloop
  endfacet
  facet normal -1 0 0
    outer loop
      vertex 4.025 13.9807 -0.612547
      vertex 4.025 13.9 0.206832
      vertex 4.025 13.9807 0.612548
    endloop
  endfacet
  facet normal -1 0 0
    outer loop
      vertex 4.025 13.9807 -0.612547
      vertex 4.025 13.9807 0.612548
      vertex 4.025 14.139 0.994723
    endloop
  endfacet
  facet normal -1 0 0
    outer loop
      vertex 4.025 13.9807 -0.612547
      vertex 4.025 14.139 0.994723
      vertex 4.025 14.3688 1.33867
    endloop
  endfacet
  facet normal -1 0 0
    outer loop
      vertex 4.025 13.9807 -0.612547
      vertex 4.025 14.3688 1.33867
      vertex 4.025 14.6613 1.63118
    endloop
  endfacet
  facet normal -1 0 0
    outer loop
      vertex 4.025 14.4 0.662742
      vertex 4.025 14.6613 1.63118
      vertex 4.025 15.0053 1.861
    endloop
  endfacet
  facet normal -1 0 0
    outer loop
      vertex 4.025 15.3373 1.6
      vertex 4.025 15.7932 2.1
      vertex 4.025 16.2068 2.1
    endloop
  endfacet
  facet normal -1 0 0
    outer loop
      vertex 4.025 15.3373 1.6
      vertex 4.025 15.3875 2.0193
      vertex 4.025 15.7932 2.1
    endloop
  endfacet
  facet normal -1 0 0
    outer loop
      vertex 4.025 16.6627 1.6
      vertex 4.025 16.6125 2.0193
      vertex 4.025 16.9947 1.861
    endloop
  endfacet
  facet normal -1 0 0
    outer loop
      vertex 4.025 17.6 0.662742
      vertex 4.025 17.861 0.994723
      vertex 4.025 18.0193 0.612547
    endloop
  endfacet
  facet normal -1 0 0
    outer loop
      vertex 4.025 17.6 -0.662742
      vertex 4.025 17.3387 -1.63118
      vertex 4.025 16.6627 -1.6
    endloop
  endfacet
  facet normal -1 0 0
    outer loop
      vertex 4.025 17.6 -0.662742
      vertex 4.025 17.6312 -1.33867
      vertex 4.025 17.3387 -1.63118
    endloop
  endfacet
  facet normal -1 0 0
    outer loop
      vertex 4.025 17.6 -0.662742
      vertex 4.025 17.861 -0.994723
      vertex 4.025 17.6312 -1.33867
    endloop
  endfacet
  facet normal -1 0 0
    outer loop
      vertex 4.025 17.6 -0.662742
      vertex 4.025 18.0193 -0.612548
      vertex 4.025 17.861 -0.994723
    endloop
  endfacet
  facet normal -1 0 0
    outer loop
      vertex 4.025 17.6 0.662742
      vertex 4.025 18.1 -0.206832
      vertex 4.025 18.0193 -0.612548
    endloop
  endfacet
  facet normal -1 0 0
    outer loop
      vertex 4.025 16.6627 -1.6
      vertex 4.025 17.3387 -1.63118
      vertex 4.025 16.9947 -1.861
    endloop
  endfacet
  facet normal -1 0 0
    outer loop
      vertex 4.025 16.6627 -1.6
      vertex 4.025 16.2068 -2.1
      vertex 4.025 15.3373 -1.6
    endloop
  endfacet
  facet normal -1 0 0
    outer loop
      vertex 4.025 16.6627 -1.6
      vertex 4.025 16.6125 -2.0193
      vertex 4.025 16.2068 -2.1
    endloop
  endfacet
  facet normal -1 0 0
    outer loop
      vertex 4.025 15.3373 -1.6
      vertex 4.025 16.2068 -2.1
      vertex 4.025 15.7932 -2.1
    endloop
  endfacet
  facet normal -1 0 0
    outer loop
      vertex 4.025 13.9807 -0.612547
      vertex 4.025 15.7932 -2.1
      vertex 4.025 15.3875 -2.0193
    endloop
  endfacet
  facet normal -1 0 0
    outer loop
      vertex 4.025 13.9807 -0.612547
      vertex 4.025 15.3875 -2.0193
      vertex 4.025 15.0053 -1.861
    endloop
  endfacet
  facet normal -1 0 0
    outer loop
      vertex 4.025 13.9807 -0.612547
      vertex 4.025 15.0053 -1.861
      vertex 4.025 14.6613 -1.63118
    endloop
  endfacet
  facet normal -1 0 0
    outer loop
      vertex 4.025 13.9807 -0.612547
      vertex 4.025 14.6613 -1.63118
      vertex 4.025 14.3688 -1.33867
    endloop
  endfacet
  facet normal -1 0 0
    outer loop
      vertex 4.025 13.9807 -0.612547
      vertex 4.025 14.3688 -1.33867
      vertex 4.025 14.139 -0.994723
    endloop
  endfacet
  facet normal -1 0 0
    outer loop
      vertex 4.025 13.9807 -0.612547
      vertex 4.025 14.6613 1.63118
      vertex 4.025 14.4 0.662742
    endloop
  endfacet
  facet normal -1 0 0
    outer loop
      vertex 4.025 14.4 -0.662742
      vertex 4.025 13.9807 -0.612547
      vertex 4.025 14.4 0.662742
    endloop
  endfacet
  facet normal -1 0 0
    outer loop
      vertex 4.025 15.3373 -1.6
      vertex 4.025 13.9807 -0.612547
      vertex 4.025 14.4 -0.662742
    endloop
  endfacet
  facet normal -1 0 0
    outer loop
      vertex 4.025 16.6627 -1.6
      vertex 4.025 16.9947 -1.861
      vertex 4.025 16.6125 -2.0193
    endloop
  endfacet
  facet normal -1 0 0
    outer loop
      vertex 4.025 13.9807 -0.612547
      vertex 4.025 15.3373 -1.6
      vertex 4.025 15.7932 -2.1
    endloop
  endfacet
  facet normal -1 0 0
    outer loop
      vertex 4.025 17.6 0.662742
      vertex 4.025 18.0193 -0.612548
      vertex 4.025 17.6 -0.662742
    endloop
  endfacet
  facet normal -1 0 0
    outer loop
      vertex 4.025 14.4 0.662742
      vertex 4.025 15.0053 1.861
      vertex 4.025 15.3875 2.0193
    endloop
  endfacet
  facet normal -1 0 0
    outer loop
      vertex 4.025 14.4 0.662742
      vertex 4.025 15.3875 2.0193
      vertex 4.025 15.3373 1.6
    endloop
  endfacet
  facet normal -1 0 0
    outer loop
      vertex 4.025 16.6627 1.6
      vertex 4.025 16.9947 1.861
      vertex 4.025 17.3387 1.63118
    endloop
  endfacet
  facet normal -1 0 0
    outer loop
      vertex 4.025 15.3373 1.6
      vertex 4.025 16.2068 2.1
      vertex 4.025 16.6125 2.0193
    endloop
  endfacet
  facet normal -1 0 0
    outer loop
      vertex 4.025 15.3373 1.6
      vertex 4.025 16.6125 2.0193
      vertex 4.025 16.6627 1.6
    endloop
  endfacet
  facet normal -1 0 0
    outer loop
      vertex 4.025 16.6627 1.6
      vertex 4.025 17.3387 1.63118
      vertex 4.025 17.6312 1.33867
    endloop
  endfacet
  facet normal -1 0 0
    outer loop
      vertex 4.025 16.6627 1.6
      vertex 4.025 17.6312 1.33867
      vertex 4.025 17.861 0.994723
    endloop
  endfacet
  facet normal -1 0 0
    outer loop
      vertex 4.025 16.6627 1.6
      vertex 4.025 17.861 0.994723
      vertex 4.025 17.6 0.662742
    endloop
  endfacet
  facet normal -1 0 0
    outer loop
      vertex 4.025 17.6 0.662742
      vertex 4.025 18.0193 0.612547
      vertex 4.025 18.1 0.206832
    endloop
  endfacet
  facet normal -1 0 0
    outer loop
      vertex 4.025 17.6 0.662742
      vertex 4.025 18.1 0.206832
      vertex 4.025 18.1 -0.206832
    endloop
  endfacet
  facet normal 1 0 0
    outer loop
      vertex -4.025 13.9807 -0.612547
      vertex -4.025 14.139 -0.994723
      vertex -4.025 14.3688 -1.33867
    endloop
  endfacet
  facet normal 1 0 0
    outer loop
      vertex -4.025 15.0053 -1.861
      vertex -4.025 13.9807 -0.612547
      vertex -4.025 14.6613 -1.63118
    endloop
  endfacet
  facet normal 1 0 0
    outer loop
      vertex -4.025 14.6613 -1.63118
      vertex -4.025 13.9807 -0.612547
      vertex -4.025 14.3688 -1.33867
    endloop
  endfacet
  facet normal 1 0 0
    outer loop
      vertex -4.025 15.3875 -2.0193
      vertex -4.025 13.9807 -0.612547
      vertex -4.025 15.0053 -1.861
    endloop
  endfacet
  facet normal 1 0 0
    outer loop
      vertex -4.025 15.7932 -2.1
      vertex -4.025 13.9807 -0.612547
      vertex -4.025 15.3875 -2.0193
    endloop
  endfacet
  facet normal 1 0 0
    outer loop
      vertex -4.025 15.3373 -1.6
      vertex -4.025 13.9807 -0.612547
      vertex -4.025 15.7932 -2.1
    endloop
  endfacet
  facet normal 1 0 0
    outer loop
      vertex -4.025 15.3373 -1.6
      vertex -4.025 14.4 -0.662742
      vertex -4.025 13.9807 -0.612547
    endloop
  endfacet
  facet normal 1 0 0
    outer loop
      vertex -4.025 16.6627 -1.6
      vertex -4.025 16.6125 -2.0193
      vertex -4.025 16.9947 -1.861
    endloop
  endfacet
  facet normal 1 0 0
    outer loop
      vertex -4.025 16.6627 -1.6
      vertex -4.025 16.2068 -2.1
      vertex -4.025 16.6125 -2.0193
    endloop
  endfacet
  facet normal 1 0 0
    outer loop
      vertex -4.025 17.6 -0.662742
      vertex -4.025 16.6627 -1.6
      vertex -4.025 17.3387 -1.63118
    endloop
  endfacet
  facet normal 1 0 0
    outer loop
      vertex -4.025 17.6 0.662742
      vertex -4.025 17.6 -0.662742
      vertex -4.025 18.0193 -0.612548
    endloop
  endfacet
  facet normal 1 0 0
    outer loop
      vertex -4.025 16.6627 1.6
      vertex -4.025 17.6 0.662742
      vertex -4.025 17.861 0.994723
    endloop
  endfacet
  facet normal 1 0 0
    outer loop
      vertex -4.025 15.3373 1.6
      vertex -4.025 16.6125 2.0193
      vertex -4.025 16.2068 2.1
    endloop
  endfacet
  facet normal 1 0 0
    outer loop
      vertex -4.025 14.3688 1.33867
      vertex -4.025 13.9807 -0.612547
      vertex -4.025 14.6613 1.63118
    endloop
  endfacet
  facet normal 1 0 0
    outer loop
      vertex -4.025 14.139 0.994723
      vertex -4.025 13.9807 -0.612547
      vertex -4.025 14.3688 1.33867
    endloop
  endfacet
  facet normal 1 0 0
    outer loop
      vertex -4.025 13.9807 0.612548
      vertex -4.025 13.9807 -0.612547
      vertex -4.025 14.139 0.994723
    endloop
  endfacet
  facet normal 1 0 0
    outer loop
      vertex -4.025 13.9 0.206832
      vertex -4.025 13.9807 -0.612547
      vertex -4.025 13.9807 0.612548
    endloop
  endfacet
  facet normal 1 0 0
    outer loop
      vertex -4.025 13.9 -0.206832
      vertex -4.025 13.9807 -0.612547
      vertex -4.025 13.9 0.206832
    endloop
  endfacet
  facet normal 1 0 0
    outer loop
      vertex -4.025 14.6613 1.63118
      vertex -4.025 14.4 0.662742
      vertex -4.025 15.0053 1.861
    endloop
  endfacet
  facet normal 1 0 0
    outer loop
      vertex -4.025 14.6613 1.63118
      vertex -4.025 13.9807 -0.612547
      vertex -4.025 14.4 0.662742
    endloop
  endfacet
  facet normal 1 0 0
    outer loop
      vertex -4.025 15.3875 2.0193
      vertex -4.025 15.3373 1.6
      vertex -4.025 15.7932 2.1
    endloop
  endfacet
  facet normal 1 0 0
    outer loop
      vertex -4.025 15.3373 1.6
      vertex -4.025 16.6627 1.6
      vertex -4.025 16.6125 2.0193
    endloop
  endfacet
  facet normal 1 0 0
    outer loop
      vertex -4.025 16.6125 2.0193
      vertex -4.025 16.6627 1.6
      vertex -4.025 16.9947 1.861
    endloop
  endfacet
  facet normal 1 0 0
    outer loop
      vertex -4.025 17.861 0.994723
      vertex -4.025 17.6 0.662742
      vertex -4.025 18.0193 0.612547
    endloop
  endfacet
  facet normal 1 0 0
    outer loop
      vertex -4.025 18.0193 -0.612548
      vertex -4.025 17.6 -0.662742
      vertex -4.025 17.861 -0.994723
    endloop
  endfacet
  facet normal 1 0 0
    outer loop
      vertex -4.025 17.3387 -1.63118
      vertex -4.025 16.6627 -1.6
      vertex -4.025 16.9947 -1.861
    endloop
  endfacet
  facet normal 1 0 0
    outer loop
      vertex -4.025 16.2068 -2.1
      vertex -4.025 15.3373 -1.6
      vertex -4.025 15.7932 -2.1
    endloop
  endfacet
  facet normal 1 0 0
    outer loop
      vertex -4.025 16.6627 -1.6
      vertex -4.025 15.3373 -1.6
      vertex -4.025 16.2068 -2.1
    endloop
  endfacet
  facet normal 1 0 0
    outer loop
      vertex -4.025 14.4 0.662742
      vertex -4.025 15.3875 2.0193
      vertex -4.025 15.0053 1.861
    endloop
  endfacet
  facet normal 1 0 0
    outer loop
      vertex -4.025 14.4 0.662742
      vertex -4.025 15.3373 1.6
      vertex -4.025 15.3875 2.0193
    endloop
  endfacet
  facet normal 1 0 0
    outer loop
      vertex -4.025 15.3373 1.6
      vertex -4.025 16.2068 2.1
      vertex -4.025 15.7932 2.1
    endloop
  endfacet
  facet normal 1 0 0
    outer loop
      vertex -4.025 16.6627 1.6
      vertex -4.025 17.861 0.994723
      vertex -4.025 17.6312 1.33867
    endloop
  endfacet
  facet normal 1 0 0
    outer loop
      vertex -4.025 16.6627 1.6
      vertex -4.025 17.6312 1.33867
      vertex -4.025 17.3387 1.63118
    endloop
  endfacet
  facet normal 1 0 0
    outer loop
      vertex -4.025 16.6627 1.6
      vertex -4.025 17.3387 1.63118
      vertex -4.025 16.9947 1.861
    endloop
  endfacet
  facet normal 1 0 0
    outer loop
      vertex -4.025 17.6 0.662742
      vertex -4.025 18.0193 -0.612548
      vertex -4.025 18.1 -0.206832
    endloop
  endfacet
  facet normal 1 0 0
    outer loop
      vertex -4.025 17.6 0.662742
      vertex -4.025 18.1 -0.206832
      vertex -4.025 18.1 0.206832
    endloop
  endfacet
  facet normal 1 0 0
    outer loop
      vertex -4.025 17.6 0.662742
      vertex -4.025 18.1 0.206832
      vertex -4.025 18.0193 0.612547
    endloop
  endfacet
  facet normal 1 0 0
    outer loop
      vertex -4.025 17.6 -0.662742
      vertex -4.025 17.3387 -1.63118
      vertex -4.025 17.6312 -1.33867
    endloop
  endfacet
  facet normal 1 0 0
    outer loop
      vertex -4.025 17.6 -0.662742
      vertex -4.025 17.6312 -1.33867
      vertex -4.025 17.861 -0.994723
    endloop
  endfacet
  facet normal 1 0 0
    outer loop
      vertex -4.025 14.4 -0.662742
      vertex -4.025 14.4 0.662742
      vertex -4.025 13.9807 -0.612547
    endloop
  endfacet
  facet normal -1 0 2.22045e-16
    outer loop
      vertex -10 17.6 -0.662742
      vertex -10 19.262 -1.16841e-15
      vertex -10 16.6627 -1.6
    endloop
  endfacet
  facet normal -1 0 2.22045e-16
    outer loop
      vertex -10 15.3373 -1.6
      vertex -10 14.369 -2.825
      vertex -10 12.738 2.80227e-16
    endloop
  endfacet
  facet normal -1 0 2.22045e-16
    outer loop
      vertex -10 15.3373 1.6
      vertex -10 12.738 2.80227e-16
      vertex -10 14.369 2.825
    endloop
  endfacet
  facet normal -1 0 2.22045e-16
    outer loop
      vertex -10 16.6627 1.6
      vertex -10 14.369 2.825
      vertex -10 17.631 2.825
    endloop
  endfacet
  facet normal -1 0 2.22045e-16
    outer loop
      vertex -10 14.4 -0.662742
      vertex -10 15.3373 -1.6
      vertex -10 12.738 2.80227e-16
    endloop
  endfacet
  facet normal -1 0 2.22045e-16
    outer loop
      vertex -10 17.631 -2.825
      vertex -10 14.369 -2.825
      vertex -10 16.6627 -1.6
    endloop
  endfacet
  facet normal -1 0 2.22045e-16
    outer loop
      vertex -10 17.631 -2.825
      vertex -10 16.6627 -1.6
      vertex -10 19.262 -1.16841e-15
    endloop
  endfacet
  facet normal -1 0 2.22045e-16
    outer loop
      vertex -10 17.6 0.662742
      vertex -10 19.262 -1.16841e-15
      vertex -10 17.6 -0.662742
    endloop
  endfacet
  facet normal -1 0 2.22045e-16
    outer loop
      vertex -10 16.6627 1.6
      vertex -10 19.262 -1.16841e-15
      vertex -10 17.6 0.662742
    endloop
  endfacet
  facet normal -1 0 2.22045e-16
    outer loop
      vertex -10 15.3373 1.6
      vertex -10 14.369 2.825
      vertex -10 16.6627 1.6
    endloop
  endfacet
  facet normal -1 0 2.22045e-16
    outer loop
      vertex -10 19.262 -1.16841e-15
      vertex -10 16.6627 1.6
      vertex -10 17.631 2.825
    endloop
  endfacet
  facet normal -1 0 2.22045e-16
    outer loop
      vertex -10 14.4 0.662742
      vertex -10 12.738 2.80227e-16
      vertex -10 15.3373 1.6
    endloop
  endfacet
  facet normal -1 0 2.22045e-16
    outer loop
      vertex -10 14.4 -0.662742
      vertex -10 12.738 2.80227e-16
      vertex -10 14.4 0.662742
    endloop
  endfacet
  facet normal -1 0 2.22045e-16
    outer loop
      vertex -10 16.6627 -1.6
      vertex -10 14.369 -2.825
      vertex -10 15.3373 -1.6
    endloop
  endfacet
  facet normal 2.22045e-16 -3.18043e-07 -1
    outer loop
      vertex 10 16.6627 1.6
      vertex 10 15.3373 1.6
      vertex 4.025 16.6627 1.6
    endloop
  endfacet
  facet normal 2.22045e-16 -3.18043e-07 -1
    outer loop
      vertex 4.025 16.6627 1.6
      vertex 10 15.3373 1.6
      vertex 4.025 15.3373 1.6
    endloop
  endfacet
  facet normal 1.57009e-16 -0.707107 -0.707107
    outer loop
      vertex 10 17.6 0.662742
      vertex 10 16.6627 1.6
      vertex 4.025 17.6 0.662742
    endloop
  endfacet
  facet normal 1.57009e-16 -0.707107 -0.707107
    outer loop
      vertex 4.025 17.6 0.662742
      vertex 10 16.6627 1.6
      vertex 4.025 16.6627 1.6
    endloop
  endfacet
  facet normal 1.57009e-16 0.707107 -0.707107
    outer loop
      vertex 10 15.3373 1.6
      vertex 10 14.4 0.662742
      vertex 4.025 15.3373 1.6
    endloop
  endfacet
  facet normal 1.57009e-16 0.707107 -0.707107
    outer loop
      vertex 4.025 15.3373 1.6
      vertex 10 14.4 0.662742
      vertex 4.025 14.4 0.662742
    endloop
  endfacet
  facet normal 7.06198e-23 1 -3.18043e-07
    outer loop
      vertex 10 14.4 0.662742
      vertex 10 14.4 -0.662742
      vertex 4.025 14.4 0.662742
    endloop
  endfacet
  facet normal 7.06198e-23 1 -3.18043e-07
    outer loop
      vertex 4.025 14.4 0.662742
      vertex 10 14.4 -0.662742
      vertex 4.025 14.4 -0.662742
    endloop
  endfacet
  facet normal -1.57009e-16 0.707107 0.707107
    outer loop
      vertex 10 14.4 -0.662742
      vertex 10 15.3373 -1.6
      vertex 4.025 15.3373 -1.6
    endloop
  endfacet
  facet normal -1.57009e-16 0.707107 0.707107
    outer loop
      vertex 4.025 14.4 -0.662742
      vertex 10 14.4 -0.662742
      vertex 4.025 15.3373 -1.6
    endloop
  endfacet
  facet normal -2.22045e-16 3.18043e-07 1
    outer loop
      vertex 10 15.3373 -1.6
      vertex 10 16.6627 -1.6
      vertex 4.025 16.6627 -1.6
    endloop
  endfacet
  facet normal -2.22045e-16 3.18043e-07 1
    outer loop
      vertex 4.025 15.3373 -1.6
      vertex 10 15.3373 -1.6
      vertex 4.025 16.6627 -1.6
    endloop
  endfacet
  facet normal -1.57009e-16 -0.707107 0.707107
    outer loop
      vertex 10 16.6627 -1.6
      vertex 10 17.6 -0.662742
      vertex 4.025 17.6 -0.662742
    endloop
  endfacet
  facet normal -1.57009e-16 -0.707107 0.707107
    outer loop
      vertex 4.025 16.6627 -1.6
      vertex 10 16.6627 -1.6
      vertex 4.025 17.6 -0.662742
    endloop
  endfacet
  facet normal -7.06198e-23 -1 3.18043e-07
    outer loop
      vertex 10 17.6 -0.662742
      vertex 10 17.6 0.662742
      vertex 4.025 17.6 0.662742
    endloop
  endfacet
  facet normal -7.06198e-23 -1 3.18043e-07
    outer loop
      vertex 4.025 17.6 -0.662742
      vertex 10 17.6 -0.662742
      vertex 4.025 17.6 0.662742
    endloop
  endfacet
  facet normal -1.57009e-16 0.707107 -0.707107
    outer loop
      vertex -10 14.4 0.662742
      vertex -10 15.3373 1.6
      vertex -4.025 14.4 0.662742
    endloop
  endfacet
  facet normal -1.57009e-16 0.707107 -0.707107
    outer loop
      vertex -4.025 14.4 0.662742
      vertex -10 15.3373 1.6
      vertex -4.025 15.3373 1.6
    endloop
  endfacet
  facet normal -7.06198e-23 1 -3.18043e-07
    outer loop
      vertex -10 14.4 -0.662742
      vertex -10 14.4 0.662742
      vertex -4.025 14.4 -0.662742
    endloop
  endfacet
  facet normal -7.06198e-23 1 -3.18043e-07
    outer loop
      vertex -4.025 14.4 -0.662742
      vertex -10 14.4 0.662742
      vertex -4.025 14.4 0.662742
    endloop
  endfacet
  facet normal 1.57009e-16 0.707107 0.707107
    outer loop
      vertex -4.025 15.3373 -1.6
      vertex -10 15.3373 -1.6
      vertex -10 14.4 -0.662742
    endloop
  endfacet
  facet normal 1.57009e-16 0.707107 0.707107
    outer loop
      vertex -4.025 14.4 -0.662742
      vertex -4.025 15.3373 -1.6
      vertex -10 14.4 -0.662742
    endloop
  endfacet
  facet normal 2.22045e-16 3.18043e-07 1
    outer loop
      vertex -4.025 16.6627 -1.6
      vertex -10 16.6627 -1.6
      vertex -10 15.3373 -1.6
    endloop
  endfacet
  facet normal 2.22045e-16 3.18043e-07 1
    outer loop
      vertex -4.025 15.3373 -1.6
      vertex -4.025 16.6627 -1.6
      vertex -10 15.3373 -1.6
    endloop
  endfacet
  facet normal 1.57009e-16 -0.707107 0.707107
    outer loop
      vertex -10 17.6 -0.662742
      vertex -10 16.6627 -1.6
      vertex -4.025 16.6627 -1.6
    endloop
  endfacet
  facet normal 1.57009e-16 -0.707107 0.707107
    outer loop
      vertex -4.025 17.6 -0.662742
      vertex -10 17.6 -0.662742
      vertex -4.025 16.6627 -1.6
    endloop
  endfacet
  facet normal 7.06198e-23 -1 3.18043e-07
    outer loop
      vertex -10 17.6 0.662742
      vertex -10 17.6 -0.662742
      vertex -4.025 17.6 -0.662742
    endloop
  endfacet
  facet normal 7.06198e-23 -1 3.18043e-07
    outer loop
      vertex -4.025 17.6 0.662742
      vertex -10 17.6 0.662742
      vertex -4.025 17.6 -0.662742
    endloop
  endfacet
  facet normal -1.57009e-16 -0.707107 -0.707107
    outer loop
      vertex -10 17.6 0.662742
      vertex -4.025 17.6 0.662742
      vertex -10 16.6627 1.6
    endloop
  endfacet
  facet normal -1.57009e-16 -0.707107 -0.707107
    outer loop
      vertex -10 16.6627 1.6
      vertex -4.025 17.6 0.662742
      vertex -4.025 16.6627 1.6
    endloop
  endfacet
  facet normal -2.22045e-16 -3.18043e-07 -1
    outer loop
      vertex -10 16.6627 1.6
      vertex -4.025 16.6627 1.6
      vertex -10 15.3373 1.6
    endloop
  endfacet
  facet normal -2.22045e-16 -3.18043e-07 -1
    outer loop
      vertex -10 15.3373 1.6
      vertex -4.025 16.6627 1.6
      vertex -4.025 15.3373 1.6
    endloop
  endfacet
endsolid OpenSCAD_Model
